<?xml version="1.0" standalone="no"?>
<!DOCTYPE svg PUBLIC "-//W3C//DTD SVG 20010904//EN"
 "http://www.w3.org/TR/2001/REC-SVG-20010904/DTD/svg10.dtd">
<svg version="1.0" xmlns="http://www.w3.org/2000/svg"
 width="260.000000pt" height="260.000000pt" viewBox="0 0 260.000000 260.000000"
 preserveAspectRatio="xMidYMid meet">
<metadata>
Created by potrace 1.11, written by Peter Selinger 2001-2013
</metadata>
<g transform="translate(0.000000,260.000000) scale(0.100000,-0.100000)"
fill="#000000" stroke="none">
<path d="M1409 2584 c0 -5 -2 -40 -4 -79 -18 -316 -109 -549 -287 -733 -28
-29 -44 -39 -46 -30 -3 7 -26 58 -52 114 -56 119 -105 198 -161 259 -40 43
-136 112 -144 103 -3 -2 0 -20 5 -38 5 -19 8 -84 6 -144 -4 -123 -33 -247
-112 -491 -49 -150 -85 -295 -104 -415 -19 -123 -21 -373 -4 -465 71 -370 383
-642 756 -660 402 -19 746 250 832 651 10 51 13 117 11 251 -2 100 -6 197 -9
215 -3 18 -8 56 -10 84 -39 427 -205 869 -432 1152 -85 106 -243 251 -245 226z
m5 -1407 c120 -147 185 -360 174 -571 -5 -102 -40 -172 -113 -228 -60 -46
-118 -62 -194 -55 -73 6 -125 30 -176 82 -60 60 -78 105 -83 210 -4 81 0 106
33 230 21 77 41 169 44 205 l7 65 36 -37 c20 -21 47 -61 61 -89 l24 -51 32 39
c39 48 68 122 77 201 6 55 8 60 25 52 10 -6 33 -29 53 -53z"/>
</g>
</svg>
